<?xml version="1.0" standalone="no"?>
<!DOCTYPE svg PUBLIC "-//W3C//DTD SVG 20010904//EN"
 "http://www.w3.org/TR/2001/REC-SVG-20010904/DTD/svg10.dtd">
<svg version="1.0" xmlns="http://www.w3.org/2000/svg"
 width="521.000000pt" height="521.000000pt" viewBox="0 0 521.000000 521.000000"
 preserveAspectRatio="xMidYMid meet">
<metadata>
Created by potrace 1.11, written by Peter Selinger 2001-2013
</metadata>
<g transform="translate(0.000000,521.000000) scale(0.100000,-0.100000)"
fill="#000000" stroke="none">
<path d="M2287 5059 c-367 -35 -733 -142 -1067 -309 -125 -63 -135 -75 -135
-157 0 -58 3 -67 28 -88 52 -45 82 -43 204 19 292 146 559 231 878 278 128 20
190 23 420 23 229 -1 292 -4 415 -23 279 -43 570 -133 854 -263 139 -64 181
-71 226 -39 33 23 60 76 60 117 0 39 -36 72 -135 121 -331 165 -747 284 -1124
322 -120 12 -496 11 -624 -1z"/>
<path d="M2312 4460 c-318 -33 -637 -128 -937 -277 -363 -181 -637 -409 -887
-738 -66 -88 -81 -121 -75 -168 8 -57 35 -79 100 -85 68 -5 86 5 139 76 67 90
181 222 245 283 376 362 869 594 1398 660 131 16 483 17 610 0 264 -33 518
-100 734 -192 360 -155 637 -368 898 -692 52 -64 103 -122 113 -127 67 -36
180 34 180 110 0 32 -26 76 -106 180 -227 297 -500 515 -870 697 -257 127
-500 205 -784 254 -101 17 -178 21 -400 24 -151 2 -312 0 -358 -5z"/>
<path d="M2470 3893 c-428 -42 -696 -132 -1010 -341 -304 -202 -512 -436 -673
-758 -152 -303 -205 -581 -185 -975 13 -279 82 -592 182 -831 17 -39 58 -68
98 -68 35 1 105 36 117 58 17 31 13 75 -10 138 -108 287 -165 691 -140 993 24
299 94 511 244 738 283 428 759 721 1272 783 196 24 528 9 680 -31 384 -101
708 -298 951 -579 265 -307 394 -639 397 -1027 1 -111 -1 -135 -21 -184 -50
-126 -148 -224 -284 -282 -70 -30 -79 -31 -208 -31 -117 0 -143 3 -192 22
-135 54 -246 159 -289 272 -13 33 -26 108 -35 190 -7 75 -22 164 -32 197 -71
226 -284 421 -533 489 -99 27 -291 25 -394 -4 -251 -72 -448 -266 -516 -507
-33 -117 -31 -304 4 -475 54 -260 182 -566 327 -780 53 -78 90 -105 107 -78 4
7 1 8 -7 3 -8 -5 -11 -4 -7 3 4 5 15 9 25 7 9 -1 25 5 35 13 13 12 18 13 15 3
-2 -7 5 -15 14 -16 10 -2 16 2 15 8 -1 6 12 11 30 12 17 0 35 4 40 9 5 5 2 6
-6 1 -10 -6 -12 -4 -7 4 6 9 11 9 21 1 9 -8 15 -8 20 0 3 6 12 7 18 4 7 -4 -6
13 -29 37 -92 98 -207 269 -262 389 -91 197 -142 427 -142 634 0 161 41 263
150 372 194 195 535 190 734 -10 97 -97 146 -211 146 -339 0 -143 63 -317 155
-431 93 -114 233 -203 390 -248 103 -29 295 -31 395 -4 265 72 478 277 540
522 14 55 20 110 20 193 0 428 -143 819 -426 1161 -75 91 -257 269 -339 331
-170 131 -392 249 -585 313 -236 79 -586 121 -810 99z"/>
<path d="M2500 3279 c-451 -32 -865 -288 -1100 -679 -127 -211 -177 -431 -167
-724 12 -322 68 -567 188 -824 48 -103 162 -305 197 -351 20 -25 77 -37 89
-18 4 6 1 7 -8 2 -8 -5 -10 -4 -6 0 12 14 38 15 30 2 -5 -9 -3 -9 8 -1 8 6 27
10 42 9 15 -1 30 3 34 8 4 6 1 7 -7 2 -8 -5 -11 -4 -7 2 3 5 29 9 56 8 41 -1
48 1 39 12 -9 11 -14 11 -27 1 -14 -11 -14 -11 -3 4 11 14 6 26 -35 85 -239
336 -343 674 -343 1114 0 330 82 537 305 768 155 161 321 256 555 319 86 23
113 25 280 25 167 0 194 -2 280 -25 234 -63 400 -158 555 -319 199 -206 282
-387 305 -665 11 -140 23 -164 91 -178 63 -12 125 6 144 44 30 57 9 274 -41
440 -151 496 -660 900 -1179 935 -44 3 -100 7 -125 9 -25 2 -92 0 -150 -5z"/>
<path d="M2570 2082 c-67 -18 -80 -45 -80 -171 0 -218 75 -456 202 -644 57
-84 157 -195 221 -246 58 -47 82 -57 94 -39 4 7 1 8 -8 3 -8 -5 -10 -4 -6 0
12 14 38 15 30 2 -5 -9 -3 -9 8 -1 8 6 26 10 41 9 15 -1 25 2 22 6 -2 4 0 10
5 13 5 4 13 2 16 -4 5 -8 11 -7 21 1 8 6 14 8 14 4 0 -5 8 -1 18 7 9 8 34 14
55 13 21 -1 41 3 44 9 3 6 3 8 -1 4 -4 -3 -15 0 -24 9 -9 8 -47 36 -83 63 -78
57 -180 159 -244 245 -108 143 -178 343 -194 553 -7 101 -10 116 -32 137 -26
25 -79 37 -119 27z"/>
</g>
</svg>
